<svg id="Layer_1" data-name="Layer 1" xmlns="http://www.w3.org/2000/svg" viewBox="0 0 214.44 77.42"><title>bowl-back</title><polygon points="10.73 36.17 32.13 19.23 96.8 6.12 151.46 8.03 192.86 24.02 204.26 39.69 198.44 57.92 145.88 77.42 57.95 75.5 14.69 55.68 10.73 36.17" style="fill:#505f66"/><path d="M548.32,406.91l-0.42-4.3,4.19-9s36.52-17.59,58.15-18.87,69.08-2.24,89.32,4.16,31.17,18.87,31.17,18.87l0.88,4.67h15.12l-0.91-6.26s-4.16-4.49-15.09-14.08-37-13.43-49.08-17.27-61.17-3.2-61.17-3.2-41.4,7.35-51.17,10.87-31.63,19.19-31.63,19.19l-5.38,12.33,1.16,3.31A68.59,68.59,0,0,0,548.32,406.91Z" transform="translate(-532.29 -361.63)" style="fill:#89a3af"/></svg>