<svg id="Layer_1" data-name="Layer 1" xmlns="http://www.w3.org/2000/svg" viewBox="0 0 214.63 133.73"><title>bowl-front</title><path d="M532.6,335l2.66,31.49s20.2,57.29,36,72.91,37.88,27.78,37.88,27.78L678.59,462s32.82-16.18,49.24-41.35,18.61-62,19.07-73.87c0.4-10.14-.23-10.23-0.23-10.23l-17.43,16.67L683,371.48l-90.87-3.82L550.9,351.52Z" transform="translate(-532.6 -333.48)" style="fill:#60727c"/><path d="M731.61,333.48l0.75,4-7,9.59s-31.87,17.27-50.24,17.91-52.34,2.56-78.62-2.56-41.4-13.43-44.66-17.27-3.49-6.72-3.49-6.72l0-.49a68.59,68.59,0,0,1-14.87.47l2.59,7.38s6,9.91,28.38,20.15S637,379,677,376.13s63.73-25.9,63.73-25.9l6.5-13.29-0.5-3.47H731.61Z" transform="translate(-532.6 -333.48)" style="fill:#89a3af"/></svg>